# xmcd
#
# Track frame offsets:
# 150
# 12902
# 28373
# 46081
# 60161
# 77008
# 90282
# 106540
# 119464
# 133376
#
# Disc length: 1948 seconds
#
#
# Revision: 0
# Processed by: cddbd v1.5PL3 Copyright (c) Steve Scherf et al.
# Submitted via: FreeRIP 2.53 
#
DISCID=71079a0a
DTITLE=Tippin, Aaron - Read Between The Lines
DYEAR=1900
DGENRE=
TTITLE0=The Sound Of Your Goodbye
TTITLE1=My Blue Angel
TTITLE2=If I Had It To Do Over
TTITLE3=There Ain't Nothing Wrong With The Radio
TTITLE4=Read Between The Lines
TTITLE5=This Heart
TTITLE6=These Sweet Dreams
TTITLE7=I Was Broken With A Broken Heart
TTITLE8=I Wouldn't Have It Any Other Way
TTITLE9=I Miss Misbehavin'
EXTD=
EXTT0=
EXTT1=
EXTT2=
EXTT3=
EXTT4=
EXTT5=
EXTT6=
EXTT7=
EXTT8=
EXTT9=
PLAYORDER=
